<svg width="70" height="65" viewBox="0 0 70 65" fill="none" xmlns="http://www.w3.org/2000/svg">
<path d="M68.5312 15.1818C63.5414 12.6516 57.7817 13.1538 52.509 14.3831C47.9073 15.4939 43.4269 17.1059 39.1503 19.0709C30.727 22.993 23.0548 28.5653 16.6804 35.3376C13.1016 39.1515 9.88553 43.361 7.22329 47.8893C6.53518 49.0259 8.34492 50.0648 8.99327 48.9175C13.5871 41.1567 19.7229 34.3204 26.8939 28.8695C34.0144 23.4477 42.1516 19.3211 50.7984 16.9504C56.135 15.4825 62.325 14.3286 67.503 16.9518C67.9879 17.2096 68.6191 17.0804 68.9167 16.6062C69.1744 16.1212 69.0162 15.4396 68.5312 15.1818Z" fill="#3A643B"/>
<path d="M27.7374 44.0115C22.65 45.5035 17.5335 46.9451 12.4461 48.4372C11.844 48.6168 11.2923 48.7672 10.6902 48.9468C10.1385 49.0973 9.55482 49.367 8.95557 49.3769C8.17597 49.4237 8.03119 48.5326 7.99219 47.883C7.73539 45.3425 7.65892 42.7651 7.50294 40.1665C7.32356 37.178 7.10443 34.1788 6.92505 31.1903C6.84706 29.891 4.76032 29.8858 4.87807 31.1958C5.04965 34.0544 5.22122 36.9129 5.43256 39.7821C5.59634 42.5108 5.66994 45.2578 5.96366 47.9787C6.09492 49.0792 6.37456 50.2621 7.30179 50.9367C8.44627 51.7547 9.83085 51.3587 11.0351 50.9995C13.714 50.2258 16.393 49.4521 19.072 48.6784C22.162 47.8018 25.2124 46.9146 28.3131 45.9982C29.5571 45.6497 29.0212 43.6737 27.7374 44.0115Z" fill="#3A643B"/>
</svg>
